<svg
  xmlns="http://www.w3.org/2000/svg"
  viewBox="643506 2695795 7218840 2242195"
  role="img"
  aria-label="La Aldea"
>
  <defs>
    <linearGradient id="g1" x1="0%" y1="0%" x2="100%" y2="100%">
      <stop offset="0%"   stop-color="#38bdf8"/>
      <stop offset="60%"  stop-color="#009ee0"/>
      <stop offset="100%" stop-color="#0369a1"/>
    </linearGradient>
    <linearGradient id="g2" x1="0%" y1="0%" x2="100%" y2="100%">
      <stop offset="0%"   stop-color="#4ade80"/>
      <stop offset="100%" stop-color="#009035"/>
    </linearGradient>
  </defs>
  <path d="M3985402.026 2886375.689c34505.731 9373.76 77108.332 22310.934 109802.66 32704.227 44087.357 14025.996 99033.23 31278.861 143763.981 47650.771 70872.356 25933.739 128619.469 49185.019 189672.638 74336.787 71763.21 32664.633 150811.623 69971.604 220862.414 106585.689 104130.892 95816.258 201877.333 172103.025 290834.018 276402.189 54510.344 63913.799 106051.177 132093.798 155919.184 199531.418 32446.869 43859.694 60003.942 86739.449 89035.872 130223.005-33951.422-38168.129-61498.596-74089.328-95974.632-110564.835-63042.743-66685.344-124670.018-125461.887-196561.906-189355.89-32585.446-28952.743-73960.649-62488.434-110594.53-92361.726-45433.536-35950.894-104833.677-80830.12-153038.757-114494.489-97459.388-68031.523-190692.171-125244.123-289428.449-181961.805-58855.73-33793.048-108862.315-58281.625-158601.643-84690.486-65853.881-31843.068-130292.294-63844.511-195690.849-94004.856m-1434808.871-135874.977c28705.284-1959.878 115514.022-5849.939 151930.139-6968.455a8859045 8859045 0 0 1 169875.891-3266.463c84789.47 1098.719 153682.151 2692.358 243816.743 6909.065 39850.853 22984.024 139903.615 80642.051 214755.117 126946.644 69734.043 45542.418 164095.24 110495.546 247152.495 171736.785a4414675 4414675 0 0 1 205826.784 174201.48 5394614 5394614 0 0 1 118067.802 118245.973c-40781.3-33426.808-85106.218-68595.73-121730.201-94380.994-42275.954-29744.613-65151.096-44819.836-112396.034-74406.076-39019.389-22855.345-74138.82-45908.658-144516.257-82710.811-111030.059-58044.064-185713.289-90174.185-262653.348-123789.062-100112.152-39563.8-190127.963-73178.677-283697.291-103794.347-67398.027-20182.784-181684.65-52590.06-237689.649-66675.446-59122.987-14867.357-123234.753-27507.581-188742.191-42048.292m-1049207.823 243163.45c41197.032-18282.296 128678.859-52124.836 155453.96-61607.478 42315.548-14986.138 103141.055-34545.324 138656.42-43998.271 38682.845-12412.561 72891.624-22538.597 139864.021-40108.211 34089.999 15283.089 80859.815 37257.479 147456.074 71783.007 65814.287 34129.593 112386.136 60617.641 189920.097 107724.002 45671.097 27745.142 104665.404 65824.186 157908.757 103833.941 53253.251 38029.552 76445.141 56559.308 117444.205 89342.722-120799.753-51530.934-65111.503-29190.304-172924.59-69585.568-107813.087-40385.365-153880.119-51610.121-234076.743-73346.95-80196.624-21717.032-201273.532-45453.332-301464.871-59528.82-100181.441-14065.589-200798.41-20836.077-338247.228-24508.373m-560376.634 456750.559c12838.191-21578.455 36129.064-56064.389 47244.938-70743.677 14956.443-19747.256 33773.251-43681.523 46977.682-59271.462 15540.447-17153.882 19173.15-23102.804 47284.531-51916.97 23815.487 3167.48 101151.482 14946.544 148851.745 24013.455 47136.056 8967.927 108654.449 22726.666 165936.338 37574.227 33753.455 8740.264 75663.169 21311.199 116444.469 35010.548s57004.735 20321.361 90985.852 31556.016c-83730.344-9571.727-41197.032-5364.919-114504.388-10442.784s-103101.461-3513.923-155523.249-2138.049c-52421.787 1385.772-129282.66 9066.91-191464.244 18886.097s-120888.839 24320.304-202233.674 47472.601m-154612.598 493186.473c-1365.976-19450.304-2207.337-51699.206-2029.167-65309.47 247.459-18311.991 841.362-40820.893 2029.167-55609.064 1296.687-16599.573 1653.028-20390.65 4751.219-50095.67 25518.008-4404.776 75504.795-12175 119651.542-17272.662 41137.641-4751.219 89392.213-8403.719 137785.363-10868.414 28507.316-1455.061 64091.97-1524.35 91975.689-445.427 27873.821 1088.821 32347.885 1069.024 73168.779 3315.955-44750.548 8314.634-50224.348 8987.723-72436.299 14718.882s-74653.535 23389.857-109941.237 37742.499-86689.957 39801.361-124006.827 61944.023c-37336.666 22142.662-75752.254 48680.202-120958.127 81879.348m106486.705 436260.925c-8512.601-15283.089-21083.536-40781.3-26102.012-51728.901-6760.589-14748.577-15302.886-32882.398-19974.918-45017.804-5265.935-13630.061-6958.557-17025.203-15758.211-41602.865 18846.504-9601.423 57044.328-27576.869 90599.815-42186.869 31268.963-13630.061 68674.917-28071.788 106654.977-41602.865a890854 890854 0 0 1 73772.58-22291.138c22825.65-5790.549 28051.991-7799.919 61726.259-15738.414-32823.007 17341.951-46670.832 24547.967-61686.665 34674.003-15015.833 10116.138-43721.117 31932.154-66616.055 51867.479-22914.735 19925.426-54559.836 52599.958-76148.189 79266.177s-42760.975 56945.344-66467.58 94361.197m293179.933 331961.761c-13808.231-9987.459-35564.857-27240.325-44611.971-34802.682-12175-10165.63-27319.512-22578.191-36623.983-31278.861-10452.683-9759.797-13362.805-12056.219-31654.999-29893.089 10769.431-15134.613 33327.824-44483.292 53659.084-69268.82 18955.386-23092.906 42464.023-49135.527 66853.616-74604.043a692886 692886 0 0 1 49204.816-46057.133c15738.414-13293.516 19024.674-16926.219 42503.617-36030.081-18509.959 26854.288-26359.369 38088.942-33822.743 52243.617-7473.272 14154.674-20618.313 43335.08-29962.377 68793.698-9334.166 25438.821-19895.731 65012.519-25102.276 95746.969s-8433.414 64428.515-10442.784 105150.425m377860.52 181694.549c-16955.914-4503.76-44423.901-13016.362-56024.796-16906.422-15639.431-5236.24-34970.955-11531.605-47373.617-16391.707-13936.91-5444.106-17599.309-6572.52-42365.04-16807.439 1771.809-17688.394 6631.91-52580.161 11848.353-82493.047 4850.203-27873.821 12204.695-60033.637 20588.617-91965.791a574106 574106 0 0 1 19588.882-59489.226c6978.354-17708.191 8007.784-22192.154 18787.113-47918.027-2593.374 31189.776-3781.179 44275.426-3167.48 59944.552 603.801 15659.227 3810.874 47165.751 8453.211 73921.055s15273.191 66992.194 26131.707 97221.827 24914.207 62508.23 43533.048 100884.225m481674.664-86472.193c-17599.309 12273.983-43602.336 29764.41-56094.084 36752.662-16035.366 8977.825-39167.865 20044.207-52956.3 26131.707-14669.39 6602.215-21875.406 8413.618-49115.731 18797.012-10145.833-15184.105-28982.438-45799.775-44225.934-73327.153-14204.166-25656.585-29101.219-56707.783-42958.942-88451.868-8166.158-18698.028-16757.947-42909.45-22439.613-62458.738-5691.565-19529.491-11383.13-35980.589-19103.861-64933.332 17272.662 28111.381 27428.394 46027.438 40405.162 61201.645 12966.87 15154.41 34347.357 33337.723 55945.609 50184.755s57232.397 39108.475 86452.396 53451.218c29219.999 14322.947 62854.673 27794.634 104091.299 42661.991m217081.235-397587.979c-1168.008 20984.552-5701.463 52976.096-8631.382 66665.547-3612.906 16916.321-8601.687 39098.576-12818.394 52679.145-4355.284 14570.406-6839.776 20252.073-16609.471 45898.759-20390.65-4870-57806.503-15124.715-92520.1-25488.312-32229.105-9621.219-69684.551-23102.804-107011.319-37633.617-21994.187-8562.093-49086.036-20954.857-70100.283-31773.78s-27052.256-11660.284-57687.722-28150.975c35693.536 7562.358 51491.34 9829.085 69140.141 11363.333s52896.909 2246.931 82552.437 593.902 73742.885-8492.805 106476.807-17025.203 66190.425-20558.922 107199.388-37128.8m-196868.756-454374.949c18945.487 15966.077 47353.82 42958.942 58202.438 55133.942a663191 663191 0 0 1 40009.227 50244.145c10274.512 14263.557 15144.512 22469.308 31239.268 49442.377a3573313 3573313 0 0 1-83185.933 46324.389 1573841 1573841 0 0 1-96212.193 47324.125c-20390.65 9165.894-47571.584 17935.853-69298.515 25547.703-21726.93 7621.748-27349.207 9561.829-60112.824 20440.142 27685.751-19935.325 41454.389-30625.568 53698.678-41454.389 12244.288-10838.719 34842.276-34347.357 50362.926-57034.43 15510.752-22687.073 33001.178-58934.917 44384.308-89204.144 11383.13-30259.329 21380.487-65883.576 30912.621-106753.961m-399320.194-120443.412c21133.028-2177.642 55351.706-3414.939 69387.6-3048.699 17817.073 455.325 40900.08 2533.984 55025.06 4167.215 14966.341 1959.878 23251.28 3424.837 49521.564 8591.788a3256565 3256565 0 0 1-22805.853 80632.153 1395671 1395671 0 0 1-29804.003 88471.665c-6849.675 18242.703-18074.43 40514.044-26676.117 58687.458-8611.585 18163.516-10274.512 19430.508-23617.52 46462.966 4731.423-29190.304 6028.11-40741.706 6889.268-54836.991s296.951-42206.666-4068.232-65358.962c-4375.081-23162.195-15807.703-55559.572-27319.512-80592.559-11521.707-25032.987-27418.495-53055.283-46522.357-83185.933m-326745.318 156107.253a494919 494919 0 0 1 29655.528-27467.987 702785 702785 0 0 1 42780.771-33456.503c9591.524-6384.451 14016.097-9987.459 31377.845-20410.447 8136.463 14085.386 22568.292 39920.141 34782.885 61795.547 9423.252 16876.727 23221.585 45789.877 34287.967 70525.913 6730.894 15025.731 16223.435 41058.454 19400.813 51055.812s4107.825 12986.666 11422.723 36960.528c-15065.325-20687.601-18015.04-24399.491-25735.772-33733.658-7710.833-9334.166-24369.796-26943.373-40296.28-39326.239-15936.382-12382.866-41078.251-26686.016-62290.466-36782.357-21222.113-10096.341-47086.564-19866.036-75386.015-29160.609" fill="url(#g1)" fill-rule="evenodd"/>
  <path d="M2816780.223 4187031.9c64388.921 5345.122 120908.636-32298.394 187673.167-15283.089-15075.223 157403.94-3701.992 303256.477 9136.199 440348.954 100963.412-9076.809 205826.784 14134.878 309502.351 8473.008-5493.597 64537.397-1197.703 130688.229 16183.841 194552.536-196809.366-7780.122-353767.878 28230.162-526890.436 43849.796-19262.235-164788.126-34159.288-349620.46-38108.739-511062.936l3019.004-78909.836 2296.423-39791.463c643.394-6770.488 1306.585-13451.89 2048.963-19420.609 247.459-35020.446 15065.325-17322.154 35139.227-22756.361m995410.161 496047.103c-73257.864 10492.276-133905.2 12412.561-207420.422 16777.744-8859.045 32605.243 1435.264 67576.198-7423.78 100191.339-80275.811-3662.398-167282.517 6166.687-232295.036 10294.309 3989.045-138032.822 53797.661-335713.245 94727.437-478418.099 29863.394-104140.79 66843.718-177141.297 79335.466-177675.809 14382.337-5889.532 109456.217-34723.495 183337.679-37613.82 88986.38 157502.923 261792.189 412623.609 355995.013 675049.294-75583.982-2781.443-148742.863 7037.744-228870.198-188.069a2850732 2850732 0 0 1-37386.158-108416.888m-39514.308-132984.652c-32387.479-96420.059-58489.491-157067.395-91084.835-231839.71-44087.357 82522.742-60479.064 156156.745-61152.153 249260.848 49284.003-8908.536 102943.087-8512.601 152236.989-17421.138m2692862.481-428164.056c178843.817-31061.097 325161.578 2890.325 550983.077 34862.072-7908.801 52075.344-21905.101 66635.852-38366.097 124679.916-107377.559-6038.008-207202.658-7245.61-304374.993-6364.654 6107.297 36990.223 8077.073 62082.6 12184.898 100884.225 100488.29 17322.154 135964.062 12016.626 233957.962 17124.187-7918.699 39405.426 9007.52 85323.982 13818.13 135459.245-100488.29-8888.74-151702.476-22122.865-249468.714-23558.13-2791.341 31872.764-7176.321 84334.144-9502.439 105219.713 114187.64 5077.866 193097.475 22855.345 323934.18 32902.194 15995.772 49630.446 21103.333 116573.148 6186.484 168024.895-393598.934-23944.166-449653.425-39157.967-540995.618-29893.089 12996.565-117810.445 23924.369-209489.182 16827.235-315975.887-7889.004-118592.416-25814.959-233067.109-15184.105-343374.586m-1199227.575-821.565c64656.177 0 155265.891 21756.626 219931.967 21756.626-20766.788 161739.427-24547.967 300593.815-17629.004 469776.819 34842.276 1346.179 140952.842 13946.809 258515.828 26804.796 17134.085 62132.092 44908.922 142467.294 31971.747 192582.76-92846.746 3622.805-164095.24 7720.732-239699.019 9334.166-87323.453-6493.333-197205.301-26102.012-258703.897-24300.508 2672.561-310413.001-32694.329-469370.986 5612.378-695954.659m2250642.735 583875.373c-73683.494 6928.862-134350.627 5939.024-207984.63 6740.793-10422.988 32140.02-13105.447 86353.413-23528.434 118503.331-83769.937-3771.28-157384.143-10690.244-221248.45-19717.561 10650.65-137686.379 69951.807-332743.733 117721.359-473290.742 34842.276-102576.847 68397.763-179992.029 80899.409-186218.106 14649.593-5186.748 91510.465-12402.662 165441.419-10462.581 81275.547 161610.748 279243.022 410356.881 370674.301 675761.977-75366.218 7354.492-168935.545 11125.772-246113.165 13808.231-8463.11-44018.068-23419.552-88432.071-35861.808-125125.343m-33050.67-134736.664c-27685.751-97875.12-66616.055-150237.517-95558.9-226494.589-48026.91 80305.506-61637.173 143585.81-66814.023 236541.438 49660.141-6513.13 112722.68-3533.719 162372.923-10046.849m-2508168.725 114148.046c-69545.974-11274.248-127213.9-8185.955-200986.479 16084.857-11887.947 36059.776-25597.195 65942.966-37495.04 102002.742-81166.665-6869.471-133598.351-4662.134-196749.975-12719.41 92539.896-214289.894 109951.136-463461.656 199194.874-681107.099 70614.998-13758.74 190791.154-7453.475 260911.234 14233.861 74980.181 225366.174 185950.85 451217.368 226375.808 692747.586-95618.291-6235.975-189563.756-6433.943-244371.052-3068.496 3315.955-41078.251-3741.585-85521.949-6879.37-128174.042m-5147.154-141051.826c-17104.39-83839.226-46284.796-148762.659-66309.206-236650.32-51728.901 78177.356-69684.551 156790.24-77128.128 235541.702 46284.796-15481.057 97617.762-18846.504 143427.436 1108.618m806509.596-380473.691c24122.337-15184.105 57212.6-23914.471 84551.909-31031.402 39771.666-14877.256 77929.897-20360.955 124165.201-20459.939 79860.08-178.171 139131.542 9898.374 190593.187 31278.861 29130.914 12115.609 78187.254 44443.698 105318.697 74297.193 25636.788 28190.568 46453.068 62805.182 63418.881 101537.518 16757.947 38296.808 34604.715 84591.502 37455.446 129866.664 4454.268 70872.356 3028.902 127223.798-9225.284 167460.687-12254.187 40177.499-23815.487 78998.921-48145.69 107931.868-23825.386 28348.942-53401.726 51590.324-83888.718 62260.771-41325.71 14451.626-88055.933 15471.158-121908.371 18420.874-93500.039 8146.362-191484.041 14471.422-287221.112 21707.134-51016.218-228484.162-47997.214-488405.558-55104.247-663280.128m200263.898 103487.498 15540.447 132539.225 17668.597 206202.922 38583.861 4513.658c31833.17 3721.789 67655.385-2365.711 88966.583-7384.187 20321.361-4771.016 33624.776-13006.463 43681.523-30130.65 12937.175-22023.882 12501.646-52580.161 6938.76-104655.506-7849.41-73604.307-42077.987-142398.005-76801.482-165797.761-41751.341-28121.28-88362.783-38781.828-134578.29-35287.702" fill="url(#g2)" fill-rule="evenodd"/>
  <path d="M4310187.466 4516311.202a142338.615 142338.615 0 0 1 142308.92 142318.818 142318.818 142318.818 0 1 1-142318.818-142318.818" fill="#e30016" fill-rule="evenodd"/>
</svg>